<svg xmlns="http://www.w3.org/2000/svg" xmlns:xlink="http://www.w3.org/1999/xlink" version="1.1" x="0px" y="0px" viewBox="0 0 30 37.5" xml:space="preserve"><g transform="translate(-150 -80)"><g xmlns="http://www.w3.org/2000/svg" xmlns:xlink="http://www.w3.org/1999/xlink"><g><path d="M174.96,86.252l-1.414-1.414l-8.519,8.519c-1.137-0.939-3.352-2.359-4.942-0.769c-0.708,0.707-0.744,1.364-1.821,2.441     c-1.033,1.033-3.192,1.24-4.705,1.793c-1.52,0.555-2.688,2.351-2.744,3.363c-0.058,1.049-0.135,2.799,2.933,5.865     c3.066,3.066,4.816,2.99,5.865,2.933c1.013-0.056,2.809-1.224,3.364-2.744c0.552-1.513,0.759-3.672,1.792-4.704     c1.077-1.078,1.733-1.115,2.441-1.822c1.591-1.591,0.171-3.806-0.769-4.942L174.96,86.252z M163.646,98.98     c-0.781,0.78-2.048,0.78-2.828,0c-0.781-0.781-0.781-2.049,0-2.829c0.78-0.78,2.047-0.78,2.828,0     C164.428,96.933,164.428,98.199,163.646,98.98z"/></g><polygon points="179.203,82.01 177.788,80.596 177.081,81.303 176.374,80.596 175.667,81.303 176.374,82.01 175.667,82.717     174.96,82.01 174.253,82.717 174.96,83.424 174.253,84.131 175.667,85.545 176.374,84.838 177.081,85.545 177.788,84.838     177.081,84.131 177.788,83.424 178.495,84.131 179.203,83.424 178.495,82.717   "/><rect x="177.288" y="83.631" transform="matrix(0.7071 -0.7071 0.7071 0.7071 -7.4166 150.3565)" style="opacity:0.5;" width="1" height="1"/><rect x="175.167" y="81.51" transform="matrix(0.7071 -0.7071 0.7071 0.7071 -6.538 148.2354)" style="opacity:0.5;" width="1" height="1"/></g></g><text x="0" y="45" fill="#000000" font-size="5px" font-weight="bold" font-family="'Helvetica Neue', Helvetica, Arial-Unicode, Arial, Sans-serif">Created by Hea Poh Lin</text><text x="0" y="50" fill="#000000" font-size="5px" font-weight="bold" font-family="'Helvetica Neue', Helvetica, Arial-Unicode, Arial, Sans-serif">from the Noun Project</text></svg>