<svg xmlns="http://www.w3.org/2000/svg" xmlns:xlink="http://www.w3.org/1999/xlink" version="1.1" x="0px" y="0px" viewBox="0 0 30 37.5" xml:space="preserve"><g transform="translate(-510 -80)"><g xmlns="http://www.w3.org/2000/svg" xmlns:xlink="http://www.w3.org/1999/xlink"><path d="M516,87.633c2.247,0.684,4.07,0.878,4.229,0.412c0.175-0.51-1.707-1.618-4.229-2.504v-1.24c0-0.276-0.224-0.5-0.5-0.5    c-0.276,0-0.5,0.224-0.5,0.5v0.912c-2.247-0.684-4.069-0.878-4.23-0.412c-0.176,0.511,1.708,1.618,4.23,2.504v3.459l1,0.193    V87.633z"/><path d="M515,106.033l-2.777,1.852c-0.23,0.153-0.292,0.463-0.139,0.693c0.097,0.145,0.255,0.223,0.417,0.223    c0.095,0,0.191-0.027,0.276-0.084l2.723-1.815l2.723,1.815c0.086,0.057,0.182,0.084,0.277,0.084c0.161,0,0.32-0.078,0.416-0.223    c0.153-0.23,0.092-0.54-0.139-0.693L516,106.033v-4.894l-1-0.192V106.033z"/><path d="M516,91.975l-1-0.192l-3.063-0.591l-0.189,0.981l0.981,0.189l-1.137,5.892l-0.982-0.189l-0.189,0.98L515,99.929l1,0.192    l1.001,0.193c0-0.005-0.001-0.009-0.001-0.014c0-3.203,1.897-5.965,4.622-7.242L516,91.975z"/><path d="M535,106.033v-5.086l-1,0.192v4.894l-2.777,1.852c-0.229,0.153-0.292,0.463-0.139,0.693    c0.097,0.145,0.255,0.223,0.417,0.223c0.095,0,0.191-0.027,0.276-0.084l2.723-1.815l2.723,1.815    c0.086,0.057,0.182,0.084,0.277,0.084c0.161,0,0.32-0.078,0.416-0.223c0.153-0.23,0.092-0.54-0.139-0.693L535,106.033z"/><path d="M535,85.305c2.522-0.886,4.405-1.993,4.229-2.504c-0.159-0.466-1.982-0.271-4.229,0.412v-1.912c0-0.276-0.224-0.5-0.5-0.5    c-0.276,0-0.5,0.224-0.5,0.5v2.24c-2.521,0.886-4.404,1.994-4.229,2.504c0.16,0.466,1.982,0.271,4.229-0.412v5.324l1-0.193V85.305    z"/><path d="M539.577,99.045l-0.189-0.98l-0.981,0.189l-1.137-5.892l0.982-0.189l-0.188-0.981L535,91.782l-1,0.192l-5.622,1.084    c2.726,1.277,4.622,4.039,4.622,7.242c0,0.005-0.001,0.009-0.001,0.014l1.001-0.193l1-0.192L539.577,99.045z"/><path d="M531.883,101.549c0.061-0.339,0.097-0.686,0.106-1.039c0.003-0.07,0.011-0.139,0.011-0.209    c0-2.605-1.427-4.874-3.538-6.079c-0.071-0.041-0.142-0.081-0.215-0.119c-0.288-0.151-0.591-0.28-0.901-0.391    c-0.347-0.124-0.705-0.223-1.075-0.29c-0.412-0.076-0.836-0.121-1.271-0.121c-0.435,0-0.858,0.045-1.271,0.121    c-0.37,0.067-0.727,0.166-1.075,0.29c-0.31,0.11-0.612,0.239-0.901,0.391c-0.072,0.038-0.143,0.078-0.214,0.119    c-2.112,1.205-3.539,3.474-3.539,6.079c0,0.07,0.009,0.139,0.011,0.209c0.011,0.353,0.046,0.7,0.107,1.039    c0.348,1.931,1.484,3.584,3.068,4.617l-0.323,0.969l-0.336,1.008c-0.088,0.262,0.054,0.545,0.315,0.633    c0.053,0.018,0.106,0.025,0.158,0.025c0.21,0,0.404-0.133,0.475-0.342l0.283-0.852l0.318-0.953    c0.891,0.411,1.879,0.646,2.924,0.646c1.046,0,2.034-0.235,2.925-0.646l0.317,0.953l0.284,0.852    c0.069,0.209,0.265,0.342,0.474,0.342c0.052,0,0.105-0.008,0.158-0.025c0.262-0.088,0.403-0.371,0.316-0.633l-0.336-1.008    l-0.323-0.969C530.398,105.133,531.535,103.479,531.883,101.549z M527.605,105.697c-0.789,0.383-1.671,0.603-2.605,0.603    c-0.935,0-1.815-0.221-2.606-0.603c-0.309-0.15-0.602-0.324-0.879-0.522c-1.141-0.818-1.98-2.022-2.33-3.422    c-0.085-0.34-0.141-0.689-0.165-1.05c-0.009-0.134-0.021-0.267-0.021-0.403c0-1.898,0.89-3.591,2.271-4.691    c0.654-0.521,1.419-0.904,2.252-1.117c0.475-0.12,0.967-0.191,1.478-0.191c0.511,0,1.004,0.071,1.477,0.191    c0.833,0.213,1.599,0.596,2.252,1.117c1.381,1.1,2.271,2.793,2.271,4.691c0,0.137-0.012,0.27-0.021,0.403    c-0.023,0.36-0.08,0.71-0.165,1.05c-0.35,1.4-1.19,2.604-2.329,3.422C528.209,105.374,527.914,105.548,527.605,105.697z"/></g></g><text x="0" y="45" fill="#000000" font-size="5px" font-weight="bold" font-family="'Helvetica Neue', Helvetica, Arial-Unicode, Arial, Sans-serif">Created by Hea Poh Lin</text><text x="0" y="50" fill="#000000" font-size="5px" font-weight="bold" font-family="'Helvetica Neue', Helvetica, Arial-Unicode, Arial, Sans-serif">from the Noun Project</text></svg>