<svg xmlns="http://www.w3.org/2000/svg" xmlns:xlink="http://www.w3.org/1999/xlink" version="1.1" x="0px" y="0px" viewBox="0 0 30 37.5" xml:space="preserve"><g transform="translate(-210 -80)"><g xmlns="http://www.w3.org/2000/svg" xmlns:xlink="http://www.w3.org/1999/xlink"><polygon points="236.869,85.959 234.041,83.13 238.283,80.302 239.698,81.715   "/><g><path d="M220.716,108.986l7.668-14.543l-0.707-0.707l7.778-7.777l-1.414-1.415l-7.778,7.778l-0.707-0.707l-14.543,7.668     c0,0-0.977,0.315-0.642,1.082c0.336,0.768,1.242,0.654,1.242,0.654l6.061-0.898c0,0,0.91-0.029,1.571,0.633     c0.663,0.66,0.633,1.57,0.633,1.57l-0.898,6.061c0,0-0.113,0.906,0.654,1.242C220.399,109.963,220.716,108.986,220.716,108.986z      M222.02,99.394l-1.414-1.414l3.536-3.536l1.413,1.414L222.02,99.394z"/></g></g></g><text x="0" y="45" fill="#000000" font-size="5px" font-weight="bold" font-family="'Helvetica Neue', Helvetica, Arial-Unicode, Arial, Sans-serif">Created by Hea Poh Lin</text><text x="0" y="50" fill="#000000" font-size="5px" font-weight="bold" font-family="'Helvetica Neue', Helvetica, Arial-Unicode, Arial, Sans-serif">from the Noun Project</text></svg>