<svg xmlns="http://www.w3.org/2000/svg" xmlns:xlink="http://www.w3.org/1999/xlink" version="1.1" x="0px" y="0px" viewBox="0 0 30 37.5" xml:space="preserve"><g transform="translate(-570 -80)"><g xmlns="http://www.w3.org/2000/svg" xmlns:xlink="http://www.w3.org/1999/xlink"><path d="M592,81c-2.209,0-4,1.791-4,4v2h8v-2C596,82.791,594.21,81,592,81z"/><path d="M588,88v2h1v14h2v1h0.5c0,1.729-0.771,2.5-2.5,2.5c-2.102,0-3.69-3.553-5.228-6.99c-1.672-3.736-3.4-7.602-6.188-8.115    c-1.523-0.282-3.141,0.455-4.938,2.252l0.707,0.707c1.548-1.547,2.874-2.192,4.05-1.976c2.271,0.419,3.89,4.039,5.456,7.54    c1.744,3.899,3.391,7.582,6.141,7.582c2.29,0,3.5-1.211,3.5-3.5h0.5v-1h2V90h1v-2H588z"/></g></g><text x="0" y="45" fill="#000000" font-size="5px" font-weight="bold" font-family="'Helvetica Neue', Helvetica, Arial-Unicode, Arial, Sans-serif">Created by Hea Poh Lin</text><text x="0" y="50" fill="#000000" font-size="5px" font-weight="bold" font-family="'Helvetica Neue', Helvetica, Arial-Unicode, Arial, Sans-serif">from the Noun Project</text></svg>